<svg width="169" height="169" viewBox="0 0 169 169" fill="none" xmlns="http://www.w3.org/2000/svg">
<path d="M31.1703 143.655L19.3086 10.5625H149.692L137.815 143.634L84.4211 158.438L31.1703 143.655Z" fill="#363636"/>
<path d="M84.5 147.125L127.648 135.163L137.798 21.4473H84.5V147.125Z" fill="#363636"/>
<path d="M84.5 69.6645H106.1L107.59 52.9493H84.5V36.625H125.43L125.039 41.0032L121.03 85.9888H84.5V69.6645Z" fill="#09090B"/>
<path d="M84.6004 112.057L84.5265 112.078L66.3484 107.167L65.1866 94.1484H48.7988L51.0856 119.778L84.5212 129.063L84.6004 129.042V112.057Z" fill="#09090B"/>
<path d="M104.712 85.2979L102.747 107.157L84.543 112.069V129.053L118.005 119.779L118.253 117.022L121.089 85.2979H104.712Z" fill="#09090B"/>
<path d="M84.5587 36.625V52.9493H45.1289L44.8015 49.2789L44.0568 41.0032L43.666 36.625H84.5587ZM84.5006 69.6645V85.9888H66.5497L66.2222 82.3184L65.4829 74.0427L65.092 69.6645H84.5006Z" fill="#09090B"/>
</svg>
