<svg width="146" height="169" viewBox="0 0 146 169" fill="none" xmlns="http://www.w3.org/2000/svg">
<path d="M22.8578 73.8138C17.9278 76.1326 4.8812 86.5707 2.36839 89.6634C-0.241154 92.756 -1.01446 87.9239 1.69125 79.9024C3.81712 73.4269 9.23024 64.632 18.3147 57.0942C23.6294 52.7451 35.324 46.4631 42.4754 42.7906C43.9253 42.0168 62.6746 34.0925 79.3943 30.1299C80.8441 29.7429 77.6548 32.5459 77.1711 34.0925C74.6583 41.4375 24.4994 72.9438 24.4994 72.9438L22.8578 73.8138ZM93.5043 162.437C94.3738 167.656 93.6011 168.042 88.1897 168.719C82.7771 169.396 78.8144 167.366 77.3651 166.013C75.9147 164.659 75.6256 161.664 77.0749 158.958C77.9455 157.218 78.815 156.639 79.2987 154.512C79.7812 152.483 80.1681 151.999 80.5545 151.227C80.9409 150.549 81.0382 149.872 81.1343 145.137C81.2311 140.402 81.1343 131.511 81.618 127.742C82.1017 123.876 98.8207 129.481 98.8207 129.481C98.8207 129.481 94.858 139.339 93.7951 141.755C92.7322 144.171 92.8289 148.81 92.8289 149.776C92.8289 150.743 92.442 152.675 92.1518 152.772C91.8621 152.869 93.1191 155.382 92.5387 156.832C92.1518 158.185 93.4082 161.664 93.5043 162.437ZM99.8831 14.6666C99.3027 10.9942 99.8831 3.74481 100.656 2.58628C103.072 -0.700405 115.829 -1.08677 118.536 2.77917C119.695 4.51868 119.599 8.57752 119.406 11.1871C119.212 13.7966 118.536 19.4021 118.439 21.2389C118.343 22.592 104.329 24.7173 101.236 21.0454C100.366 20.0792 99.8831 14.6666 99.8831 14.6666ZM128.297 153.062C134.192 157.315 138.734 158.088 141.73 159.634C144.726 161.181 143.953 164.177 138.928 165.047C134.868 165.82 128.49 164.273 124.238 164.273C119.986 164.273 110.514 164.757 108.001 163.017C105.102 160.988 106.358 157.218 106.358 157.218C107.132 155.093 109.064 150.356 108.484 146.491C107.904 142.625 107.131 140.499 105.681 136.923C104.232 133.347 103.169 124.552 104.522 124.069C105.875 123.585 105.489 124.069 107.228 124.456C108.968 124.842 110.901 125.422 114.67 125.422C118.439 125.422 122.595 124.842 124.044 124.552C125.494 124.262 126.654 123.972 126.17 126.968C125.687 129.964 124.238 135.569 124.141 139.919C124.044 144.268 124.044 149.294 124.335 150.163C124.624 151.033 126.751 151.999 128.297 153.062V153.062Z" fill="black"/>
<path d="M107.614 24.331C96.9834 33.5128 76.3973 36.0244 45.8578 47.8157C38.0297 50.8117 17.1545 59.7994 12.1289 69.1746C29.0414 59.4136 35.3234 72.8471 36.6766 86.667C37.9324 99.6174 44.4079 106.383 61.0308 105.996C78.1373 105.61 83.3559 115.564 88.0913 127.258C97.2725 82.5108 111.963 73.8133 121.434 66.1787C141.536 49.8449 116.795 21.0449 107.614 24.331Z" fill="#363636"/>
<path d="M107.614 24.3312C82.0993 33.2222 56.8751 35.4448 27.2051 53.7105C20.1503 58.0595 5.26693 67.9173 2.36719 86.7633C13.1912 74.7791 38.2219 59.7029 68.8587 50.1353C84.3219 45.3026 95.6296 42.1138 109.353 36.7974C108.387 30.6121 108.387 28.196 107.614 24.3301V24.3312Z" fill="#363636"/>
<path d="M140.183 77.2919C140.183 77.2919 138.347 83.574 134.674 85.6042C134.674 85.6042 131.968 86.5704 126.556 83.5745C125.01 82.7051 123.85 79.7092 123.946 78.7418C124.043 76.4225 125.493 75.3595 125.493 75.3595C125.493 75.3595 127.039 72.75 128.875 72.8467C130.712 72.9435 133.805 73.2331 134.771 72.3631C135.64 71.3969 140.376 74.1026 140.183 77.2919ZM100.752 16.5026C100.752 16.5026 100.365 21.4315 99.6888 24.5241C99.592 25.1045 96.6928 25.3936 94.5664 26.2636C98.6253 37.8609 123.077 37.7642 126.267 32.062C124.72 30.9996 121.627 29.3563 120.178 28.7764C118.728 28.196 118.824 28.2928 118.728 25.587C118.631 22.8808 118.438 17.8557 118.244 16.5026C118.051 15.1489 103.071 15.1489 100.752 16.5026Z" fill="black"/>
<path d="M101.721 16.5028C101.721 16.5028 101.721 19.3052 101.431 22.011C101.335 23.2679 101.238 24.0407 101.045 25.0069C100.948 25.5873 104.331 27.906 105.297 33.0284C109.937 43.3693 120.664 38.2475 125.11 33.3186C123.564 32.2551 121.051 30.8058 118.152 29.6461C116.702 29.0657 117.378 27.8099 117.282 25.1042C117.185 22.3979 116.798 18.4352 116.605 16.9853C116.411 15.536 104.041 15.1491 101.721 16.5028Z" fill="#363636"/>
<path d="M100.754 16.5026C100.754 16.5026 100.657 18.2421 100.367 20.2718C101.623 21.5276 103.266 23.2677 104.523 24.3306C105.393 25.1045 107.519 25.0078 109.452 25.0078C111.192 25.0078 112.738 25.2007 113.414 24.8143C114.962 24.0404 117.184 22.108 118.44 20.6582C118.344 18.9187 118.247 17.2759 118.151 16.5026C118.053 15.1489 103.073 15.1489 100.754 16.5026Z" fill="black"/>
<path d="M109.546 23.8475C108.386 23.8475 107.033 23.7507 105.97 23.5573C105.486 23.4605 105.004 23.1709 104.617 22.9774C103.94 22.4938 103.264 21.9145 102.491 21.3341C100.944 20.1744 100.848 19.4979 100.848 19.2088C101.525 13.1197 100.655 7.99789 100.655 7.99789C100.655 7.99789 99.9775 5.38778 103.651 4.71121C107.323 4.03464 109.546 3.93848 109.546 3.93848C109.546 3.93848 111.866 3.93848 115.441 4.71121C119.114 5.38835 118.437 7.99789 118.437 7.99789C118.437 7.99789 117.567 13.1197 118.244 19.2088C118.244 19.4979 118.148 20.1744 116.601 21.3341C115.248 22.3009 114.185 23.3638 113.122 23.5573C112.058 23.7507 110.705 23.8475 109.546 23.8475Z" fill="black"/>
<path d="M109.547 1.42578C103.168 1.42578 101.912 3.16529 100.075 5.09826C99.689 5.58136 99.9787 8.48053 100.656 14.6664H101.525C101.525 14.6664 100.945 12.9263 101.042 10.8966C101.138 8.86747 101.525 8.96421 101.235 8.48054C100.848 7.90013 100.075 6.93393 101.815 5.96773C103.554 5.00153 106.261 6.74103 109.547 6.83776C112.832 6.74103 115.635 5.00153 117.375 5.96773C119.114 6.93393 118.341 7.9007 117.955 8.48054C117.568 9.06094 118.051 8.86747 118.148 10.8966C118.245 12.9263 117.664 14.6664 117.664 14.6664H118.535C119.114 8.4811 119.501 5.77483 119.211 5.29116C117.568 3.16529 115.925 1.52195 109.547 1.42578ZM140.183 77.5822C140.183 77.5822 138.347 83.4773 134.772 85.507C133.998 85.12 134.094 84.5408 133.417 83.6707C133.224 83.3811 132.548 83.1871 132.258 82.8974C131.968 82.6072 132.065 82.1241 131.581 81.7378C131.195 81.3508 130.905 81.641 130.518 81.3508C130.132 80.965 130.034 80.4814 129.745 80.1923C129.552 79.9988 128.779 79.9021 128.586 79.7086C128.102 79.225 123.85 78.3555 124.044 77.3887C124.43 75.9389 125.203 74.8759 125.203 74.8759C125.203 74.8759 127.04 72.1702 128.875 72.2664C130.712 72.3631 132.451 72.75 133.418 71.88C134.481 70.9132 140.474 74.4895 140.183 77.5816V77.5822Z" fill="black"/>
<path d="M127.619 34.8653C127.619 34.8653 133.707 33.4155 137.863 37.3781C142.019 41.4375 141.728 46.4626 140.472 49.5552C141.535 50.8116 143.468 54.2906 142.019 58.4468C148.398 63.8582 145.595 72.1705 139.893 77.6792C139.893 77.6792 138.539 72.6536 133.127 72.3634C133.321 70.431 128.102 68.8844 130.518 63.8588C126.845 62.9887 126.942 60.4759 126.362 57.3833C125.879 54.2906 127.619 34.8653 127.619 34.8653Z" fill="black"/>
<path d="M125.399 37.5713C125.399 37.5713 132.453 33.9955 136.609 38.0549C140.765 42.1138 139.605 46.559 138.349 49.6516C139.412 50.9075 141.925 54.4843 140.378 58.7361C140.088 59.7029 137.962 59.7029 136.415 62.2157C140.281 59.9919 142.697 60.5723 143.567 63.3748C144.921 67.7238 141.924 72.9423 139.315 75.8421C139.315 75.7453 139.218 75.6486 139.218 75.5519C138.831 77.0023 138.348 79.8042 135.449 82.8968C133.999 84.4434 132.84 84.2505 131.197 83.8636C129.264 83.3799 128.587 82.5099 125.882 81.0612C124.335 80.1911 125.204 79.1276 125.204 78.2582C125.204 78.0647 125.398 77.7745 125.688 77.3887C125.882 76.905 126.461 76.1323 127.331 75.2622C127.331 75.2622 128.587 73.5227 130.424 73.6189C132.26 73.7156 134.193 73.3298 134.676 72.8462C134.676 69.4639 130.811 69.3666 132.164 63.5682C132.26 63.278 132.744 62.7944 134.29 62.6015C131.97 62.1178 130.907 62.0211 129.264 60.4756C128.104 59.4127 127.235 58.0595 126.945 56.32C126.365 53.3241 125.399 37.5713 125.399 37.5713Z" fill="#363636"/>
<path d="M105.004 31.4829C104.424 30.709 101.428 26.8436 95.7263 25.2976C94.0829 24.8139 93.02 26.1671 91.3778 27.1338C90.8941 26.8436 88.7677 25.8774 87.608 26.5534C86.4483 27.2294 85.6756 27.9066 84.5154 28.3897C83.935 28.0995 82.3895 28.0995 81.1331 28.5832C79.8767 28.9695 77.9437 29.839 76.1075 32.3518C74.9478 36.5079 96.5957 33.4147 96.5957 33.4147L105.004 31.4829Z" fill="black"/>
<path d="M105.2 31.4831C102.107 30.4196 102.59 26.8438 95.7284 26.264C94.3753 26.1672 93.5053 27.2302 92.5391 27.9068C93.0227 28.3904 93.5053 29.1632 93.7955 29.9359C92.9254 28.9703 91.3794 27.7133 89.8322 27.4231C88.3829 27.134 87.4161 28.197 85.8701 28.9703C86.1597 29.2593 86.4499 29.743 86.8363 30.3234C85.4826 29.4534 84.517 29.1637 82.6807 29.8397C81.4243 30.2261 79.0082 31.2896 77.172 33.8991C76.0123 38.0547 96.6941 33.4155 96.6941 33.4155L105.2 31.4831Z" fill="#363636"/>
<path d="M123.368 33.0294C123.368 33.0294 123.368 31.9665 123.271 31.0003C123.271 30.8068 122.498 30.3232 122.498 30.1303L122.305 29.9368C122.305 29.9368 123.851 29.0673 125.011 29.5504C126.267 29.9374 126.943 31.5801 126.943 31.5801C129.167 30.8074 129.359 31.6769 130.423 32.8365C132.743 32.3529 133.032 33.2229 134.482 35.3493C134.482 35.3493 132.743 35.0591 129.36 35.639C126.074 36.1215 123.368 32.9327 123.368 33.0294Z" fill="black"/>
<path d="M122.983 32.5454C122.983 32.5454 123.563 32.0618 123.37 31.965C124.432 31.3846 125.882 30.7092 126.559 32.5454C128.782 31.7716 129.072 32.8356 130.135 33.9953C132.84 32.7389 133.033 34.2844 133.227 34.9615C132.357 34.9615 131.101 35.0582 129.361 35.2511C126.076 35.7348 122.886 32.4481 122.983 32.5454Z" fill="#363636"/>
<path d="M90.1208 30.1299C90.1208 30.1299 95.6295 32.0623 100.269 31.7721C104.908 31.3863 112.833 30.9994 117.085 33.5122C117.085 33.5122 121.434 31.9656 125.493 33.0285C129.552 34.0914 136.994 41.05 134.771 48.395C134.578 48.8786 133.322 49.6514 131.872 50.135C131.872 50.135 132.646 53.4212 131.292 56.1269C129.939 58.7364 126.943 63.762 126.846 70.7206C126.749 71.8803 126.557 74.2964 126.363 75.4555C118.825 75.1664 107.227 72.3628 95.8235 72.5569C95.9197 71.3004 96.0164 70.5271 96.1137 69.2707H96.4028C95.8224 66.0814 95.6295 64.438 95.0497 62.0225C91.3772 59.7032 87.5107 56.9969 84.2257 51.8745C81.0363 46.7522 90.1208 30.1299 90.1208 30.1299ZM127.426 82.3179C127.426 82.3179 133.418 103.773 126.363 112.762C126.363 112.762 127.426 116.917 125.01 121.363C124.623 123.296 124.139 125.036 123.85 126.968C122.594 134.99 120.467 138.372 119.888 151.225L114.089 151.129C114.089 151.129 113.411 141.851 111.382 136.923C110.223 134.12 105.68 130.35 105.874 126.582C106.068 123.682 106.647 121.266 111.576 117.4C111.963 111.795 106.357 106.479 107.227 85.604L127.426 82.3179Z" fill="black"/>
<path d="M125.687 81.4478C127.233 91.3056 130.809 105.899 124.334 113.051C124.623 114.404 124.817 116.337 124.43 118.559C124.237 119.719 123.85 120.975 123.367 122.328C122.401 124.648 122.014 128.03 121.724 130.06C120.468 138.081 120.468 138.469 119.888 151.322L114.089 151.226C114.089 151.226 113.412 141.948 111.383 137.019C110.223 134.216 107.807 131.8 107.614 128.031C107.42 125.132 109.45 119.333 114.283 119.526C113.993 107.832 108.58 110.152 107.131 85.7969L125.687 81.4478ZM90.121 30.1299C90.121 30.1299 92.2474 30.8065 94.5668 30.9994C96.8861 31.1928 99.3995 30.9993 101.622 30.9026C106.261 30.5162 112.832 30.0331 117.181 32.546C117.181 32.546 119.598 31.7721 122.208 31.9656C123.367 32.0623 124.527 33.0285 125.88 33.4154C130.132 34.4784 134.191 41.5331 132.355 47.9124C132.161 48.3961 130.808 47.9124 129.262 48.3961C129.551 49.7487 129.746 52.8413 128.199 56.1274C126.556 59.4135 124.43 63.6659 124.816 71.7841C114.669 71.3004 110.126 70.6244 100.075 70.1413C99.2049 66.565 98.6251 62.9887 98.5283 61.1531C99.882 60.4759 100.654 59.8972 101.718 58.737C98.8191 59.2206 97.6589 59.0272 95.9188 58.0598C94.1793 57.0936 91.0866 54.001 89.54 51.9719C89.3471 51.7784 88.2848 54.9672 85.8687 55.0645C84.9981 53.8081 88.6706 50.2318 87.994 48.8792C85.5785 43.9498 90.121 30.1299 90.121 30.1299Z" fill="#363636"/>
<path d="M126.462 73.4263C126.462 73.4263 126.655 76.9053 126.655 77.7748C126.655 78.7416 127.429 81.6402 127.525 82.9939C126.462 84.8301 121.824 88.9857 113.415 90.5323C105.103 92.2718 94.0859 79.2247 94.0859 79.2247C94.3761 77.9683 95.3423 74.2958 96.0189 72.3628C96.1156 72.1693 96.3091 71.6862 96.3091 71.4933C97.1791 70.2369 126.462 73.4263 126.462 73.4263Z" fill="black"/>
<path d="M124.335 73.7173C124.335 76.1328 124.722 77.8728 125.013 79.4189C125.495 82.2219 126.268 84.0581 126.268 85.8944C126.268 91.4993 118.923 90.5331 112.737 90.7265C104.426 92.4666 97.3711 79.4195 97.3711 79.4195C97.9504 77.1963 98.3373 74.684 99.2068 72.557C99.3035 71.3979 99.497 69.9481 99.5937 69.2715C111.384 69.2715 119.696 69.9486 124.528 70.4306C124.722 71.4941 124.528 73.3303 124.335 73.7167V73.7173Z" fill="#363636"/>
<path d="M115.056 86.1835C115.056 86.1835 109.934 74.7791 94.5668 78.1625C90.8949 88.5028 85.9655 100.391 89.1554 113.245C85.9655 117.594 82.293 120.01 82.293 128.031C82.293 136.053 82.6799 137.406 82.6799 137.406L93.987 137.986C93.987 137.986 97.6595 133.251 99.1088 128.128C99.4957 126.678 99.8826 124.069 99.5924 121.073C99.9788 120.493 101.622 119.141 101.816 116.531C101.816 116.531 107.324 113.632 110.514 106.577C113.51 100.197 112.736 94.6881 115.056 86.1829L115.056 86.1835Z" fill="black"/>
<path d="M115.058 86.1839C114.767 85.121 110.901 74.6834 96.5985 77.7755C88.19 100.197 91.2826 109.476 92.5391 113.534C86.8363 120.782 84.2273 122.329 85.3876 137.019H92.926C96.405 131.511 97.1783 129.48 97.3712 122.232C97.3712 121.942 96.3088 122.813 95.535 123.779C96.1154 120.783 97.7581 120.203 99.0145 118.367C99.5944 117.593 100.077 116.434 100.077 114.887C106.843 110.345 109.355 104.643 110.805 98.7474C111.965 94.6885 113.318 88.0202 115.057 86.1833L115.058 86.1839Z" fill="#363636"/>
<path d="M91.1834 70.624C91.1834 70.624 93.7929 70.7208 96.1128 71.4941C98.336 72.2668 98.336 72.7499 99.2055 73.7167C100.076 74.684 102.201 76.1327 101.815 77.5826C101.622 78.3559 101.138 78.5488 100.462 79.2254C100.172 79.5156 98.0452 81.8349 97.5627 82.1246C97.2725 82.318 96.8856 82.6082 96.5959 82.8017L95.1466 83.7679C94.1799 84.2516 93.5033 84.5412 92.4404 84.4445C92.4404 84.4445 90.0243 84.3477 88.4777 82.705C88.4777 82.705 88.2842 81.9311 88.6711 81.5453C88.6711 81.5453 86.6414 79.8052 86.0616 78.6455C85.4812 77.4864 85.4812 75.8437 85.8681 74.9736C86.0616 74.103 89.8302 71.687 91.1834 70.624ZM93.6 164.66L93.3098 167.076C93.3098 167.076 92.4404 168.139 85.9654 168.043C79.3932 167.946 77.6537 165.917 77.0739 164.853L76.6875 162.34C76.6875 162.34 77.9439 160.504 78.2341 160.504C80.36 160.698 87.6088 163.597 92.6344 164.37C93.1164 164.37 93.2131 164.562 93.6 164.66ZM107.613 159.731C107.613 160.794 107.517 160.794 107.517 161.857C108.676 162.727 111.576 163.21 117.084 163.113C125.106 162.92 132.547 165.53 141.632 163.983L141.729 162.243L140.859 162.147L108.676 159.537L107.613 159.731Z" fill="black"/>
<path d="M114.669 163.114H117.085C122.305 162.92 127.233 164.08 132.548 164.37C135.351 164.273 138.83 163.596 138.541 161.567L111.094 159.247C109.45 161.083 110.707 162.63 114.669 163.114ZM83.1626 122.426C84.0327 123.006 89.9283 126.485 99.4959 126.001C99.3024 127.838 99.3991 131.414 95.1468 137.695C93.0204 140.788 91.1836 146.201 90.7978 153.062C90.8945 154.609 91.764 155.962 90.6043 157.991C90.9912 159.247 92.5373 161.761 93.3106 163.307C94.0833 164.853 94.4703 166.593 89.3473 166.689C84.1288 166.786 75.7204 166.206 76.8806 162.148C77.461 160.021 79.1038 157.798 79.2972 156.928C79.4907 156.058 79.4907 153.449 81.1329 151.709C82.5828 146.877 82.0997 142.239 81.8101 137.889C81.3264 133.346 81.2296 126.099 83.1626 122.426V122.426ZM92.1509 43.6603C99.0128 34.4785 93.2138 27.1342 82.197 29.3562C77.7506 30.2262 73.3054 33.3194 73.0152 38.9243C71.5653 39.1178 68.2798 39.3107 66.6365 45.3031C65.3806 49.9418 64.7041 50.8112 62.4809 53.1306C61.031 54.7739 62.5776 58.1562 63.6406 60.5734C67.2163 68.8846 78.2337 69.6573 85.6754 75.9393C88.1882 75.2627 90.7978 72.4603 91.5705 70.6246C85.2885 63.1818 86.6416 60.2832 84.1288 56.4173C86.8351 55.4499 93.0204 51.6824 92.1509 43.6603Z" fill="black"/>
<path d="M90.7992 43.08C91.185 42.4995 91.8621 41.2437 92.1523 40.76C92.2491 40.6633 93.312 42.4995 93.4087 42.4034C96.0177 38.1505 96.6943 31.9652 93.6984 31.3854C93.0212 31.2886 91.7654 30.999 90.7024 30.6115C88.7695 29.9355 87.03 29.9355 83.9368 30.5153C79.685 31.2886 75.4327 34.3813 75.4327 38.8271C75.4327 39.1173 78.428 39.9867 79.2981 43.5631C77.8482 41.5328 75.3354 39.3102 72.3389 41.2431C69.1501 43.2723 70.7929 47.9115 66.5406 52.7431C65.0907 54.3865 65.2842 56.3194 66.8308 60.1854C69.343 66.2739 81.2305 69.56 87.706 75.3584C89.252 74.6818 90.3149 73.1358 91.0882 71.9761C86.7392 67.4336 84.9997 63.1813 83.7433 60.0886C82.1973 56.5129 80.4572 54.4838 77.0743 51.7763C78.8144 52.4535 80.1681 53.1295 80.9403 53.7093C81.8097 54.2897 83.0662 54.3865 84.2264 53.9995C88.3831 52.5508 90.6057 46.7519 90.7986 43.08H90.7992Z" fill="#363636"/>
<path d="M132.839 44.6267C132.549 48.2992 129.843 46.4629 128.394 45.7864C125.494 44.53 122.594 43.6605 119.212 43.6605C115.829 43.6605 111.48 43.9507 107.711 44.9169C102.493 46.3662 100.946 46.27 98.6264 45.1098C96.3076 43.8534 92.2488 40.7607 92.2488 40.7607C92.2488 40.7607 92.1521 41.7275 93.1183 42.9839C94.3741 44.53 97.1777 46.4629 100.946 47.7188C102.783 48.2992 104.232 47.9122 105.876 47.5259C114.477 45.4 123.561 45.0131 131.196 49.6517C131.583 49.8452 132.936 49.2648 133.516 48.3953C134.288 47.1395 132.839 44.6267 132.839 44.6267Z" fill="black"/>
<path d="M88.8672 81.4482C89.6405 81.9319 90.6067 82.2221 91.6696 83.0916C91.6696 83.0916 90.8002 83.0916 90.4138 82.7052C89.9301 82.415 88.9639 81.5455 88.8672 81.4482Z" fill="#363636"/>
<path d="M116.794 4.80865C116.504 3.93918 114.378 2.39258 109.45 2.39258C104.134 2.39258 102.587 4.03535 102.491 4.90539C102.491 5.19559 102.105 8.28823 102.008 9.54407C102.008 9.54407 102.008 11.0907 102.105 13.41C102.201 14.956 102.588 15.8261 102.781 17.8558C102.974 19.9811 103.554 21.3348 104.617 23.0743C105.1 23.3639 105.487 23.6547 105.97 23.7514C107.903 24.1372 111.286 24.234 113.122 23.7514C114.185 23.4612 115.538 21.625 115.828 19.9817C116.215 17.9525 116.601 16.5027 116.698 15.2463C116.891 13.9904 116.988 11.1874 117.084 10.4141C117.374 8.28823 116.891 5.00212 116.794 4.80922L116.794 4.80865Z" fill="#363636"/>
<path d="M106.647 124.263C106.647 124.263 111.77 126.485 124.43 124.552C124.43 124.552 120.854 142.528 122.498 151.516C122.498 151.516 124.14 153.836 136.318 158.281C136.318 158.281 141.73 159.634 141.537 162.341C141.537 162.341 141.73 162.921 135.158 162.727C128.587 162.534 122.4 161.374 118.052 161.374C113.703 161.374 109.064 161.567 108.291 160.311C107.421 159.151 108.484 156.155 109.74 154.415C111.094 152.58 110.707 151.226 110.611 147.94C110.319 139.339 103.748 130.448 106.647 124.263Z" fill="black"/>
<path d="M105.584 125.905C104.907 126.872 105.68 130.544 106.647 134.12C107.613 137.695 109.74 139.822 110.223 145.717C110.707 151.515 110.803 152.289 109.16 155.671C107.517 159.053 107.034 162.147 112.735 162.244C118.437 162.34 121.531 162.147 127.329 163.017C133.128 163.886 135.158 164.176 138.347 163.693C141.536 163.21 142.212 162.146 140.86 161.181C139.507 160.214 133.901 159.151 131.485 157.217C129.165 155.478 122.594 152.579 122.497 151.806C122.207 149.196 122.11 139.725 122.594 136.632C123.077 133.539 123.753 129.094 123.947 127.934C124.14 126.775 125.106 125.614 123.463 126.001C121.821 126.387 115.636 127.258 110.996 126.968C106.358 126.678 105.875 125.615 105.584 125.905Z" fill="#363636"/>
<path opacity="0.3" d="M108.871 155.769C110.514 156.541 112.93 157.122 114.766 157.122C114.766 157.122 114.089 160.311 115.153 162.243C116.215 164.176 107.421 163.017 107.421 163.017L107.035 156.155L108.871 155.768V155.769ZM134.482 164.08C136.028 163.596 137.091 161.857 135.835 160.214C134.482 158.571 133.322 158.281 135.061 158.185C136.801 158.088 143.18 161.954 143.18 161.954L139.893 164.95L134.482 164.08ZM105.294 129.674C107.518 130.448 110.9 130.64 113.8 130.544C116.699 130.447 121.048 130.06 123.851 129.094C126.653 128.128 125.494 130.157 125.494 130.157L123.947 131.607C123.947 131.607 120.275 133.057 114.283 132.96C107.228 132.864 105.102 132.09 105.102 132.09L105.295 129.674H105.294ZM105.488 134.506C107.711 135.28 111.093 135.473 113.993 135.376C116.892 135.28 120.758 135.28 123.561 134.217C124.72 133.83 124.044 135.473 124.044 135.473L123.561 136.343C123.561 136.343 119.791 137.696 113.896 137.598C106.841 137.502 105.585 136.922 105.585 136.922L105.488 134.506Z" fill="black"/>
<path d="M99.1094 66.7588C99.1094 67.4359 106.648 71.204 110.803 71.9773C114.96 72.7506 123.658 71.9773 125.01 71.6877L124.817 73.0408C124.817 73.0408 114.476 74.5874 106.551 72.461C98.6263 70.3351 99.4963 69.8514 99.4963 69.8514L99.1094 66.7588Z" fill="black"/>
<path d="M82.9696 149.196C84.1293 149.777 88.2855 150.839 90.9912 150.259C91.3775 150.162 90.9912 143.59 92.0547 140.595C93.6007 136.439 96.1135 133.056 97.2726 125.711C93.2138 125.325 88.5751 124.262 86.1584 123.488C83.0664 132.96 84.1299 141.078 82.9696 149.196ZM89.4457 155.285C90.1223 155.478 90.6048 156.251 90.7988 155.768C91.1846 154.898 90.1217 153.256 90.025 152.096V151.999C89.1555 151.226 83.2604 151.13 83.6468 151.516C82.9702 152.772 81.9073 152.579 81.5209 155.092C81.328 156.348 82.8746 155.285 84.3234 155.189C81.7144 156.928 78.7185 159.151 78.2348 161.084C77.655 163.789 78.6217 164.563 81.5209 166.013C84.0343 166.593 87.0296 166.69 89.349 166.593C91.9585 166.109 92.4422 164.853 91.6689 163.113C90.5081 160.504 89.7353 157.122 89.4457 155.285Z" fill="#363636"/>
<path d="M90.5084 29.7432C93.6972 31.5794 98.1435 31.0963 99.7857 30.9996C100.173 30.9996 104.039 30.323 104.231 30.4192C104.618 30.5159 104.618 30.8061 104.618 30.8061C104.618 30.8061 103.169 31.5788 99.8824 31.7723C96.7898 31.9652 93.1173 31.7723 91.0882 30.8061C88.6715 29.7432 90.5084 29.7432 90.5084 29.7432ZM123.368 31.5794C123.947 31.9658 127.717 33.4156 129.36 35.1551C130.809 36.7018 130.037 36.605 129.746 36.2187C129.36 35.735 126.363 33.7053 125.204 33.2227C124.044 32.7391 122.594 31.8696 122.594 31.6761C122.594 31.4827 123.368 31.5794 123.368 31.5794Z" fill="black"/>
<path d="M90.0239 71.687C92.8263 71.4935 95.7255 72.1707 97.5623 74.1031C98.5285 75.0699 100.075 76.1322 99.8817 77.099C99.8817 77.3892 99.3013 78.1625 98.8193 78.7423C98.5291 79.1281 97.6596 79.9982 97.3688 80.2884C96.9831 80.5786 95.6293 81.6415 95.3397 81.835C95.0495 82.0284 94.6626 82.5121 94.3729 82.6083C93.4073 83.0919 92.3438 82.705 91.3776 82.2219C90.4114 81.7382 91.5711 81.6415 90.5076 80.8688C87.8986 79.0325 86.4482 77.7756 87.5117 74.1998C87.6084 73.5232 88.6708 72.7499 90.0239 71.687Z" fill="#363636"/>
<path opacity="0.4" d="M65.3813 49.5555C56.6832 53.0345 34.5516 64.0525 28.2695 67.4353C33.488 70.7209 35.9041 78.6451 36.678 86.6672C36.7742 87.4411 36.8709 88.1171 36.9676 88.8898C37.0644 89.5669 37.1611 90.0495 37.2573 90.3402C37.2573 90.437 37.2573 90.6304 37.354 90.726C43.0562 75.1667 63.4477 58.7367 64.221 57.4803C64.6079 56.9004 63.7373 54.3876 65.091 51.9721C66.8311 48.8789 70.214 47.5252 65.3813 49.5555ZM86.0635 122.523C90.5088 113.632 90.6055 105.126 90.5088 95.1718C90.5088 91.0157 93.5047 85.1206 91.9586 86.7634C86.1603 93.2383 71.5665 105.416 61.0322 106.093C75.8189 105.609 81.6178 113.051 86.0635 122.523Z" fill="black"/>
<path d="M19.7656 75.649C25.2743 71.6869 53.7847 56.5138 60.6471 54.3874C67.5084 52.1642 65.382 49.5547 65.382 49.5547C65.382 49.5547 37.5482 61.5383 20.9253 71.8798" fill="black"/>
<path opacity="0.4" d="M100.946 47.7194C98.7235 46.8493 96.984 49.4589 97.5638 51.9717C98.1442 54.4845 103.362 57.2869 103.072 66.4687C102.879 74.0071 101.236 77.0992 101.236 77.0992L97.5638 72.4611C97.5638 72.4611 96.9834 62.0229 95.7276 60.4763C94.4712 58.9303 90.5085 56.1273 88.9619 54.678C87.4158 53.2281 90.7014 51.2951 90.5085 48.5894C90.315 45.9799 92.1518 40.7608 92.1518 40.7608L100.946 47.7194ZM114.38 88.8899C114.187 96.1376 115.831 106.865 116.506 111.988C117.183 117.11 118.053 117.497 116.506 119.817C114.96 122.04 112.93 125.712 112.93 125.712L106.261 125.132C106.261 125.132 111.577 118.366 111.866 117.11C112.156 115.854 109.161 106.287 109.161 106.287L114.38 88.8899H114.38ZM101.526 21.2387C102.88 24.2341 104.522 25.5872 107.131 26.4572C108.678 27.0376 114.767 27.8104 117.183 25.1041C118.246 23.8477 117.57 20.4648 117.57 20.4648L112.06 24.9106L104.619 23.5575L103.749 21.3349L101.526 21.2387Z" fill="black"/>
<path d="M102.105 27.9072C104.618 29.55 110.9 31.0966 112.639 31.3862C114.379 31.7726 117.182 29.55 118.534 28.9702C119.985 28.2936 122.497 27.9072 125.397 30.5168C125.687 30.807 124.719 32.0628 124.719 32.0628C124.623 31.9661 124.043 31.9661 123.27 31.5791C122.497 31.1933 121.82 30.9026 120.661 30.9999C115.828 31.5791 115.055 33.2225 110.803 32.2557C106.551 31.2884 105.488 30.5162 101.332 30.7091" fill="#363636"/>
<path d="M102.105 27.9072C104.618 29.55 110.9 31.0966 112.639 31.3862C114.379 31.7726 117.182 29.55 118.534 28.9702C119.985 28.2936 122.497 27.9072 125.397 30.5168C125.687 30.807 124.719 32.0628 124.719 32.0628C124.623 31.9661 124.043 31.9661 123.27 31.5791C122.497 31.1933 121.82 30.9026 120.661 30.9999C115.828 31.5791 115.055 33.2225 110.803 32.2557C106.551 31.2884 105.488 30.5162 101.332 30.7091" stroke="black" stroke-width="1.586" stroke-linejoin="round"/>
<path d="M101.235 28.1973C104.425 29.5504 110.61 31.0003 112.349 31.3866C114.088 31.7736 116.891 30.0335 118.245 29.164C120.661 27.6174 123.753 28.8738 125.204 30.5172C126.169 31.5795 126.557 32.2567 126.557 32.5463C126.557 32.9327 125.397 32.5463 125.397 32.5463C124.72 32.2561 123.947 32.1599 123.367 31.7724C122.594 31.3866 121.821 30.8068 120.662 30.903C115.829 31.4834 114.863 33.1261 110.707 32.1594C106.552 31.1932 105.488 30.3231 101.043 30.6128" fill="#363636"/>
<path d="M86.2563 118.464C86.0628 118.27 86.4498 118.077 86.2563 118.077C85.0005 118.077 83.2604 117.111 82.2936 115.757C78.138 109.766 72.0489 105.804 61.0315 106.093C44.5053 106.48 37.9331 99.715 36.6773 86.7646C36.0002 79.7098 34.0677 72.8474 30.1051 68.9814L27.7852 70.4313C32.2309 74.2973 33.6808 80.5793 34.6476 89.1806C36.1936 102.131 46.6312 108.123 58.8083 108.316C71.4691 108.51 76.0116 111.119 80.747 117.498C82.2931 119.527 84.0331 120.204 85.3857 120.494L86.2563 118.464Z" fill="black"/>
<path opacity="0.4" d="M131.1 56.3213C131.39 57.7706 132.162 60.5736 133.709 61.9262C134.386 62.6027 134.482 62.7956 133.902 62.7956C133.322 62.7956 129.07 62.6027 129.07 62.6027L127.91 60.5736L131.1 56.3213Z" fill="black"/>
</svg>
