<svg width="169" height="169" viewBox="0 0 169 169" fill="none" xmlns="http://www.w3.org/2000/svg">
<path d="M31.1697 143.655L19.3027 10.5625H149.697L137.814 143.634L84.4205 158.438L31.1697 143.655Z" fill="#363636"/>
<path d="M84.5 147.125L127.648 135.163L137.798 21.4473H84.5V147.125Z" fill="#363636"/>
<path d="M84.5 70.8061H62.8997L61.4104 54.0909H84.5V37.7666H43.5703L43.9611 42.15L47.9696 87.1304H84.5V70.8061ZM84.5 113.199L84.4261 113.22L66.248 108.314L65.0861 95.2953H48.6984L50.9852 120.92L84.4261 130.204L84.5 130.183V113.199Z" fill="#09090B"/>
<path d="M84.4414 70.8061V87.1304H104.542L102.651 108.303L84.4414 113.215V130.199L117.909 120.92L118.152 118.163L121.986 75.1895L122.387 70.8061H84.4414ZM84.4414 37.7666V54.0909H123.871L124.199 50.4258L124.943 42.15L125.334 37.7666H84.4414Z" fill="#09090B"/>
</svg>
