<svg width="144" height="144" viewBox="0 0 144 144" fill="none" xmlns="http://www.w3.org/2000/svg">
<path d="M0 0H144V144H0V0Z" fill="#363636"/>
<path d="M37.8638 120.337L48.8832 113.668C51.0095 117.437 52.9433 120.626 57.5823 120.626C62.0288 120.626 64.8329 118.887 64.8329 112.121V66.1099H78.365V112.313C78.365 126.328 70.1491 132.708 58.1622 132.708C47.3369 132.708 41.0532 127.102 37.8633 120.335M85.7152 118.887L96.7334 112.507C99.6342 117.244 103.404 120.724 110.073 120.724C115.681 120.724 119.256 117.92 119.256 114.053C119.256 109.414 115.583 107.77 109.396 105.065L106.014 103.613C96.2508 99.4583 89.7747 94.2383 89.7747 83.2189C89.7747 73.0692 97.5074 65.3359 109.59 65.3359C118.193 65.3359 124.38 68.3329 128.826 76.1624L118.289 82.9292C115.969 78.7729 113.457 77.1299 109.59 77.1299C105.627 77.1299 103.113 79.6431 103.113 82.9292C103.113 86.9888 105.627 88.633 111.426 91.1462L114.809 92.5958C126.312 97.5261 132.788 102.552 132.788 113.861C132.788 126.041 123.219 132.71 110.363 132.71C97.7971 132.71 89.6774 126.717 85.7146 118.887" fill="#09090B"/>
</svg>
