<svg width="169" height="169" viewBox="0 0 169 169" fill="none" xmlns="http://www.w3.org/2000/svg">
<mask id="mask0_608_420" style="mask-type:luminance" maskUnits="userSpaceOnUse" x="0" y="0" width="169" height="169">
<path d="M0 0H169V169H0V0Z" fill="white"/>
</mask>
<g mask="url(#mask0_608_420)">
<path d="M78.9652 0.0431302C78.5991 0.0783385 77.4443 0.198047 76.4021 0.275505C52.4041 2.44434 29.9271 15.394 15.6748 35.3008C7.80429 46.2275 2.68795 58.8927 0.7605 72.2202C0.0845 76.8677 0 78.2338 0 84.529C0 90.8243 0.0845 92.1974 0.7605 96.8379C5.35167 128.575 27.9413 155.234 58.5655 165.114C64.051 166.881 69.8322 168.085 76.4021 168.818C78.9653 169.099 90.0347 169.099 92.5979 168.818C103.942 167.557 113.561 164.748 123.039 159.91C124.497 159.171 124.778 158.967 124.581 158.805C119.945 152.69 115.356 146.54 110.815 140.355L97.3017 122.096L80.3736 97.035C74.7411 88.6527 69.056 80.3058 63.3187 71.9949C63.2553 71.9738 63.1919 83.1066 63.1567 96.7111C63.1074 120.512 63.0863 121.47 62.7905 122.033C62.5021 122.69 61.9874 123.223 61.34 123.533C60.8118 123.8 60.3541 123.85 57.8543 123.85H54.9954L54.2349 123.371C53.7643 123.074 53.3824 122.655 53.1294 122.16L52.7773 121.42L52.8125 88.2963L52.8618 55.1583L53.3758 54.5104C53.7219 54.1054 54.1367 53.7645 54.6011 53.5035C55.2771 53.1725 55.5376 53.1443 58.4036 53.1443C61.7695 53.1443 62.3328 53.2711 63.206 54.2288C63.4525 54.4963 72.6207 68.3121 83.5916 84.9445L116.927 135.447L130.306 155.713L130.989 155.27C137.428 150.989 143.266 145.866 148.347 140.039C158.995 127.851 165.902 112.852 168.239 96.8379C168.915 92.1904 169 90.8243 169 84.529C169 78.2338 168.915 76.8677 168.239 72.2202C163.648 40.4905 141.059 13.8237 110.434 3.94421C104.711 2.12443 98.8173 0.890505 92.8444 0.261422C91.253 0.0924219 80.3384 -0.0906615 78.9723 0.0501719L78.9652 0.0431302ZM113.561 51.1656C113.954 51.3634 114.303 51.637 114.59 51.9705C114.876 52.3041 115.094 52.6911 115.23 53.1091C115.357 53.5316 115.392 62.721 115.357 83.4235L115.307 113.125L110.075 105.098L104.822 97.0703V75.4805C104.822 61.5169 104.886 53.6725 104.984 53.2922C105.101 52.8524 105.307 52.4409 105.587 52.0826C105.868 51.7244 106.219 51.4268 106.618 51.2079C107.301 50.8558 107.547 50.8276 110.139 50.8276C112.582 50.8276 113.012 50.8699 113.561 51.1656Z" fill="#363636"/>
</g>
</svg>
