<svg width="190" height="169" viewBox="0 0 190 169" fill="none" xmlns="http://www.w3.org/2000/svg">
<path d="M156.016 54.7203C153.996 54.0274 151.96 53.3856 149.908 52.7953C150.253 51.387 150.57 49.9957 150.852 48.6289C155.476 26.1838 152.453 8.10149 142.128 2.14795C132.229 -3.55951 116.04 2.39181 99.69 16.6212C98.0786 18.026 96.503 19.4714 94.9647 20.9559C93.9348 19.9687 92.8868 19.0008 91.8211 18.0525C74.6854 2.83803 57.5097 -3.57433 47.1962 2.39626C37.306 8.12151 34.3774 25.1201 38.5402 46.3919C38.9543 48.4986 39.4219 50.5945 39.9426 52.6775C37.5113 53.3683 35.1653 54.1036 32.9202 54.8863C12.8299 61.8909 0 72.8678 0 84.2538C0 96.0134 13.7735 107.809 34.6984 114.961C36.3948 115.538 38.1053 116.073 39.8284 116.565C39.2688 118.809 38.772 121.068 38.3385 123.339C34.37 144.241 37.4691 160.838 47.3326 166.527C57.52 172.402 74.6187 166.364 91.2674 151.81C92.6174 150.627 93.9377 149.41 95.227 148.161C96.893 149.768 98.6034 151.329 100.356 152.841C116.484 166.718 132.412 172.322 142.265 166.618C152.443 160.726 155.751 142.896 151.457 121.204C151.118 119.505 150.739 117.814 150.319 116.133C151.52 115.777 152.698 115.411 153.847 115.03C175.601 107.823 189.754 96.1705 189.754 84.2538C189.754 72.8263 176.51 61.7753 156.016 54.7203ZM151.298 107.336C150.26 107.679 149.196 108.01 148.111 108.333C145.709 100.73 142.468 92.646 138.502 84.2931C142.287 76.1396 145.403 68.1588 147.737 60.6056C149.678 61.1675 151.562 61.7597 153.378 62.3846C170.938 68.43 181.648 77.367 181.648 84.2538C181.648 91.589 170.081 101.112 151.298 107.336ZM143.505 122.778C145.404 132.37 145.674 141.042 144.416 147.822C143.287 153.914 141.014 157.976 138.203 159.603C132.224 163.064 119.436 158.565 105.644 146.696C104.013 145.29 102.422 143.84 100.872 142.345C106.219 136.498 111.563 129.7 116.778 122.15C125.952 121.336 134.618 120.005 142.477 118.188C142.856 119.71 143.199 121.24 143.505 122.778ZM64.6914 159.004C58.8491 161.067 54.1956 161.127 51.3827 159.505C45.3973 156.053 42.9089 142.726 46.303 124.851C46.7065 122.739 47.1685 120.638 47.6884 118.551C55.4609 120.271 64.0643 121.507 73.2593 122.253C78.5101 129.641 84.0078 136.431 89.5485 142.377C88.371 143.517 87.1657 144.627 85.9335 145.707C78.5709 152.142 71.1935 156.708 64.6914 159.004ZM37.3208 107.29C28.0681 104.128 20.4268 100.017 15.1892 95.5323C10.4824 91.5023 8.10681 87.5004 8.10681 84.2538C8.10681 77.3441 18.4077 68.5309 35.5886 62.541C37.6737 61.8146 39.8558 61.1289 42.1203 60.4856C44.4952 68.2092 47.6098 76.2848 51.3686 84.4509C47.5609 92.7379 44.4018 100.943 42.0039 108.757C40.4311 108.307 38.8696 107.818 37.3208 107.29ZM46.4958 44.8345C42.9297 26.61 45.2979 12.8624 51.2581 9.41198C57.606 5.73698 71.6434 10.9767 86.439 24.1142C87.4039 24.9729 88.353 25.8489 89.2861 26.7419C83.7729 32.6621 78.3256 39.4021 73.1214 46.7462C64.197 47.5734 55.6544 48.9016 47.8003 50.6813C47.3164 48.7439 46.8814 46.7939 46.4958 44.8345ZM128.347 65.0463C126.492 61.8419 124.568 58.6779 122.577 55.5564C128.631 56.3221 134.432 57.3383 139.879 58.5806C138.244 63.8226 136.206 69.3025 133.806 74.921C132.053 71.5934 130.233 68.3012 128.347 65.0463ZM94.9684 32.5353C98.7071 36.5861 102.452 41.1084 106.135 46.0153C98.6634 45.6624 91.1793 45.661 83.7076 46.0109C87.3945 41.1491 91.1711 36.6328 94.9684 32.5353ZM61.3752 65.1019C59.5135 68.3306 57.7273 71.6023 56.0183 74.9143C53.6582 69.3158 51.6384 63.8107 49.9892 58.4946C55.4031 57.2835 61.1765 56.2932 67.1923 55.5416C65.1787 58.6821 63.2391 61.8703 61.3752 65.1019ZM67.365 113.543C61.1498 112.849 55.2897 111.91 49.8772 110.731C51.5524 105.32 53.6167 99.698 56.0279 93.9794C57.7438 97.2939 59.5373 100.568 61.407 103.798C63.3298 107.118 65.3207 110.371 67.365 113.543ZM95.1922 136.543C91.3497 132.398 87.5175 127.812 83.7751 122.88C87.4086 123.022 91.1125 123.095 94.8772 123.095C98.7449 123.095 102.568 123.008 106.331 122.841C102.636 127.862 98.9058 132.454 95.1922 136.543ZM133.883 93.6874C136.419 99.469 138.557 105.062 140.254 110.38C134.753 111.635 128.813 112.647 122.554 113.397C124.56 110.218 126.502 106.999 128.379 103.742C130.288 100.432 132.123 97.0794 133.883 93.6874ZM121.358 99.6921C118.483 104.685 115.447 109.584 112.255 114.38C106.471 114.789 100.675 114.993 94.8772 114.99C88.9718 114.99 83.228 114.806 77.697 114.447C74.421 109.662 71.3271 104.755 68.422 99.7366C65.5306 94.7444 62.8306 89.6443 60.3263 84.4472C62.8242 79.2489 65.5168 74.1464 68.3983 69.1505L68.3976 69.1513C71.278 64.1541 74.3471 59.2681 77.5984 54.5038C83.2414 54.0769 89.0282 53.8545 94.8764 53.8545C100.751 53.8545 106.546 54.0791 112.188 54.509C115.406 59.2661 118.456 64.1353 121.331 69.1075C124.222 74.0924 126.95 79.1701 129.511 84.3324C126.976 89.5474 124.257 94.6706 121.358 99.6921ZM138.08 9.17034C144.433 12.835 146.905 27.6128 142.912 46.9922C142.657 48.2286 142.371 49.488 142.06 50.7651C134.187 48.9476 125.638 47.5963 116.688 46.7565C111.474 39.3317 106.071 32.5813 100.648 26.7374C102.069 25.3673 103.524 24.0327 105.012 22.7348C119.021 10.5438 132.114 5.7303 138.08 9.17034ZM94.8772 67.3093C104.235 67.3093 111.822 74.8958 111.822 84.2538C111.822 93.6118 104.235 101.198 94.8772 101.198C85.5192 101.198 77.9327 93.6118 77.9327 84.2538C77.9327 74.8958 85.5192 67.3093 94.8772 67.3093Z" fill="#363636"/>
</svg>
