<svg width="170" height="169" viewBox="0 0 170 169" fill="none" xmlns="http://www.w3.org/2000/svg">
<path d="M84.5039 33.8027C61.9701 33.8027 47.8916 45.065 42.2539 67.5988C50.7013 56.3352 60.5627 52.1115 71.8263 54.9277C78.2575 56.5306 82.8535 61.1939 87.9433 66.3616C96.227 74.7681 105.815 84.5001 126.754 84.5001C149.286 84.5001 163.366 73.2365 169.004 50.6975C160.555 61.9676 150.695 66.1913 139.43 63.3751C133 61.7709 128.41 57.1089 123.313 51.9412C115.035 43.5348 105.449 33.8027 84.5039 33.8027ZM42.2539 84.5001C19.7215 84.5001 5.64164 95.7637 0.00390625 118.303C8.45127 107.033 18.3114 102.809 29.5763 105.625C36.0075 107.229 40.6035 111.891 45.6933 117.059C53.977 125.465 63.5651 135.197 84.5039 135.197C107.036 135.197 121.116 123.935 126.754 101.401C118.305 112.665 108.445 116.889 97.1802 114.072C90.7503 112.47 86.1596 107.806 81.0632 102.639C72.7848 94.2321 63.1993 84.5001 42.2539 84.5001Z" fill="#363636"/>
</svg>
