<svg width="166" height="118" viewBox="0 0 166 118" fill="none" xmlns="http://www.w3.org/2000/svg">
<path fill-rule="evenodd" clip-rule="evenodd" d="M100.809 22.0274L46.0001 116.959V117H7.62939e-05V102.501L0 102.501V102L59.151 1.00136e-05L76.4997 4.44621e-05L17.6099 102H37.3161L96.2058 0.000172294L101 0.000165957L101 0L101.04 0.000165904L101.102 0.000165823V0.000422768L105.939 0.0205624L165.5 103V109.721V118L155.813 118H63L71.5 103H147.216L100.809 22.0274ZM101.102 2.56118L101.111 2.80804L101.102 2.81369V2.56118ZM85.2614 82.1246L101.283 54.3746L117.304 82.1246H85.2614Z" fill="#EFEFEF"/>
</svg>
